<svg xmlns="http://www.w3.org/2000/svg" xmlns:xlink="http://www.w3.org/1999/xlink" viewBox="0,0,256,256" width="96" height="96" fill-rule="nonzero"><g fill="none" fill-rule="nonzero" stroke="none" stroke-width="1" stroke-linecap="butt" stroke-linejoin="miter" stroke-miterlimit="10" stroke-dasharray="" stroke-dashoffset="0" font-family="none" font-weight="none" font-size="none" text-anchor="none" style="mix-blend-mode: normal"><g transform="scale(5.33333,5.33333)"><path d="M24,4c-11.04569,0 -20,8.95431 -20,20c0,11.04569 8.95431,20 20,20c11.04569,0 20,-8.95431 20,-20c0,-11.04569 -8.95431,-20 -20,-20z" fill="#000000"></path><path d="M8,23l4,-3l8,7l-5,2c0,0 -6.914,-6.334 -7,-6z" fill="#ffffff"></path><path d="M13,28.557l2,1.721l6,-2.556v10.278l-8,-5zM22,29.938v8.062l13,-5v-3.732l-10.247,4.014z" fill="#ffffff"></path><path d="M22,28.063l3,3.937l13,-5l-3,-5zM13,18.5v1l5,4.5v-2.375zM19,22v2l5,-2v-2zM19,25l5,-2l3.25,1.5l-5.25,2.5zM25,20v2.25l3,1.5v-2.25zM29,22l6,-3v2l-6,3zM25,19l4,2l6,-3l-4,-2zM21,13l4,2l4,-2l-4,-2z" fill="#ffffff"></path><path d="M30,14.469v-1.469l8,3l-2,4v-2.531zM12,19l-2,-4l13,-4l-3,1.625v3.781l-3,-1.406l-5,2z" fill="#ffffff"></path><path d="M19,21l5,-2l-7,-3l-4,1.5zM21,14v2.487l3,1.513v-2.487zM25,16v2l4,-2v-2z" fill="#ffffff"></path></g></g></svg>